<svg width="130" height="34" viewBox="0 0 130 34" fill="none" xmlns="http://www.w3.org/2000/svg">
<path d="M17.65 17.172L14.482 8.514C14.326 8.13 14.164 7.674 13.996 7.146C13.828 6.618 13.66 6.048 13.492 5.436C13.336 6.048 13.174 6.624 13.006 7.164C12.838 7.692 12.676 8.154 12.52 8.55L9.37 17.172H17.65ZM26.2 27H22.456C22.036 27 21.694 26.898 21.43 26.694C21.166 26.478 20.968 26.214 20.836 25.902L18.892 20.592H8.11L6.166 25.902C6.07 26.178 5.884 26.43 5.608 26.658C5.332 26.886 4.99 27 4.582 27H0.802L11.044 0.971998H15.976L26.2 27ZM39.5979 15.642C39.5979 15.066 39.5139 14.526 39.3459 14.022C39.1899 13.506 38.9499 13.056 38.6259 12.672C38.3019 12.288 37.8879 11.988 37.3839 11.772C36.8919 11.544 36.3159 11.43 35.6559 11.43C34.3719 11.43 33.3579 11.796 32.6139 12.528C31.8819 13.26 31.4139 14.298 31.2099 15.642H39.5979ZM31.1199 18.324C31.1919 19.272 31.3599 20.094 31.6239 20.79C31.8879 21.474 32.2359 22.044 32.6679 22.5C33.0999 22.944 33.6099 23.28 34.1979 23.508C34.7979 23.724 35.4579 23.832 36.1779 23.832C36.8979 23.832 37.5159 23.748 38.0319 23.58C38.5599 23.412 39.0159 23.226 39.3999 23.022C39.7959 22.818 40.1379 22.632 40.4259 22.464C40.7259 22.296 41.0139 22.212 41.2899 22.212C41.6619 22.212 41.9379 22.35 42.1179 22.626L43.3959 24.246C42.9039 24.822 42.3519 25.308 41.7399 25.704C41.1279 26.088 40.4859 26.4 39.8139 26.64C39.1539 26.868 38.4759 27.03 37.7799 27.126C37.0959 27.222 36.4299 27.27 35.7819 27.27C34.4979 27.27 33.3039 27.06 32.1999 26.64C31.0959 26.208 30.1359 25.578 29.3199 24.75C28.5039 23.91 27.8619 22.878 27.3939 21.654C26.9259 20.418 26.6919 18.99 26.6919 17.37C26.6919 16.11 26.8959 14.928 27.3039 13.824C27.7119 12.708 28.2939 11.742 29.0499 10.926C29.8179 10.098 30.7479 9.444 31.8399 8.964C32.9439 8.484 34.1859 8.244 35.5659 8.244C36.7299 8.244 37.8039 8.43 38.7879 8.802C39.7719 9.174 40.6179 9.72 41.3259 10.44C42.0339 11.148 42.5859 12.024 42.9819 13.068C43.3899 14.1 43.5939 15.282 43.5939 16.614C43.5939 17.286 43.5219 17.742 43.3779 17.982C43.2339 18.21 42.9579 18.324 42.5499 18.324H31.1199ZM63.1371 27H58.8531C58.5291 27 58.2651 26.916 58.0611 26.748C57.8691 26.58 57.7071 26.388 57.5751 26.172L53.6691 19.746C53.6091 19.95 53.5371 20.142 53.4531 20.322C53.3811 20.502 53.2971 20.67 53.2011 20.826L49.7451 26.172C49.6131 26.376 49.4511 26.568 49.2591 26.748C49.0671 26.916 48.8271 27 48.5391 27H44.5611L50.8971 17.478L44.8131 8.532H49.0971C49.4211 8.532 49.6611 8.58 49.8171 8.676C49.9731 8.76 50.1111 8.904 50.2311 9.108L54.1011 15.264C54.2331 14.856 54.4191 14.454 54.6591 14.058L57.7731 9.198C58.0371 8.754 58.3791 8.532 58.7991 8.532H62.8851L56.8191 17.28L63.1371 27Z" fill="#FFBB0B"/>
<path d="M69.9037 22.212C70.4077 22.824 70.9537 23.256 71.5417 23.508C72.1417 23.76 72.7897 23.886 73.4857 23.886C74.1577 23.886 74.7637 23.76 75.3037 23.508C75.8437 23.256 76.2997 22.872 76.6717 22.356C77.0557 21.84 77.3497 21.192 77.5537 20.412C77.7577 19.62 77.8597 18.69 77.8597 17.622C77.8597 16.542 77.7697 15.63 77.5897 14.886C77.4217 14.13 77.1757 13.518 76.8517 13.05C76.5277 12.582 76.1317 12.24 75.6637 12.024C75.2077 11.808 74.6857 11.7 74.0977 11.7C73.1737 11.7 72.3877 11.898 71.7397 12.294C71.0917 12.678 70.4797 13.224 69.9037 13.932V22.212ZM69.6697 11.052C70.4257 10.2 71.2837 9.51 72.2437 8.982C73.2037 8.454 74.3317 8.19 75.6277 8.19C76.6357 8.19 77.5537 8.4 78.3817 8.82C79.2217 9.24 79.9417 9.852 80.5417 10.656C81.1537 11.448 81.6217 12.432 81.9457 13.608C82.2817 14.772 82.4497 16.11 82.4497 17.622C82.4497 19.002 82.2637 20.28 81.8917 21.456C81.5197 22.632 80.9857 23.652 80.2897 24.516C79.6057 25.38 78.7717 26.058 77.7877 26.55C76.8157 27.03 75.7237 27.27 74.5117 27.27C73.4797 27.27 72.5977 27.114 71.8657 26.802C71.1337 26.478 70.4797 26.034 69.9037 25.47V33.03H65.4577V8.532H68.1757C68.7517 8.532 69.1297 8.802 69.3097 9.342L69.6697 11.052ZM97.8167 15.642C97.8167 15.066 97.7327 14.526 97.5647 14.022C97.4087 13.506 97.1687 13.056 96.8447 12.672C96.5207 12.288 96.1067 11.988 95.6027 11.772C95.1107 11.544 94.5347 11.43 93.8747 11.43C92.5907 11.43 91.5767 11.796 90.8327 12.528C90.1007 13.26 89.6327 14.298 89.4287 15.642H97.8167ZM89.3387 18.324C89.4107 19.272 89.5787 20.094 89.8427 20.79C90.1067 21.474 90.4547 22.044 90.8867 22.5C91.3187 22.944 91.8287 23.28 92.4167 23.508C93.0167 23.724 93.6767 23.832 94.3967 23.832C95.1167 23.832 95.7347 23.748 96.2507 23.58C96.7787 23.412 97.2347 23.226 97.6187 23.022C98.0147 22.818 98.3567 22.632 98.6447 22.464C98.9447 22.296 99.2327 22.212 99.5087 22.212C99.8807 22.212 100.157 22.35 100.337 22.626L101.615 24.246C101.123 24.822 100.571 25.308 99.9587 25.704C99.3467 26.088 98.7047 26.4 98.0327 26.64C97.3727 26.868 96.6947 27.03 95.9987 27.126C95.3147 27.222 94.6487 27.27 94.0007 27.27C92.7167 27.27 91.5227 27.06 90.4187 26.64C89.3147 26.208 88.3547 25.578 87.5387 24.75C86.7227 23.91 86.0807 22.878 85.6127 21.654C85.1447 20.418 84.9107 18.99 84.9107 17.37C84.9107 16.11 85.1147 14.928 85.5227 13.824C85.9307 12.708 86.5127 11.742 87.2687 10.926C88.0367 10.098 88.9667 9.444 90.0587 8.964C91.1627 8.484 92.4047 8.244 93.7847 8.244C94.9487 8.244 96.0227 8.43 97.0067 8.802C97.9907 9.174 98.8367 9.72 99.5447 10.44C100.253 11.148 100.805 12.024 101.201 13.068C101.609 14.1 101.813 15.282 101.813 16.614C101.813 17.286 101.741 17.742 101.597 17.982C101.453 18.21 101.177 18.324 100.769 18.324H89.3387ZM109.343 11.736C109.919 10.632 110.603 9.768 111.395 9.144C112.187 8.508 113.123 8.19 114.203 8.19C115.055 8.19 115.739 8.376 116.255 8.748L115.967 12.078C115.907 12.294 115.817 12.45 115.697 12.546C115.589 12.63 115.439 12.672 115.247 12.672C115.067 12.672 114.797 12.642 114.437 12.582C114.089 12.522 113.747 12.492 113.411 12.492C112.919 12.492 112.481 12.564 112.097 12.708C111.713 12.852 111.365 13.062 111.053 13.338C110.753 13.602 110.483 13.926 110.243 14.31C110.015 14.694 109.799 15.132 109.595 15.624V27H105.149V8.532H107.759C108.215 8.532 108.533 8.616 108.713 8.784C108.893 8.94 109.013 9.228 109.073 9.648L109.343 11.736ZM124.735 27.288C123.127 27.288 121.891 26.838 121.027 25.938C120.175 25.026 119.749 23.772 119.749 22.176V11.862H117.859C117.619 11.862 117.415 11.784 117.247 11.628C117.079 11.472 116.995 11.238 116.995 10.926V9.162L119.965 8.676L120.901 3.636C120.961 3.396 121.075 3.21 121.243 3.078C121.411 2.946 121.627 2.88 121.891 2.88H124.195V8.694H129.127V11.862H124.195V21.87C124.195 22.446 124.333 22.896 124.609 23.22C124.897 23.544 125.287 23.706 125.779 23.706C126.055 23.706 126.283 23.676 126.463 23.616C126.655 23.544 126.817 23.472 126.949 23.4C127.093 23.328 127.219 23.262 127.327 23.202C127.435 23.13 127.543 23.094 127.651 23.094C127.783 23.094 127.891 23.13 127.975 23.202C128.059 23.262 128.149 23.358 128.245 23.49L129.577 25.65C128.929 26.19 128.185 26.598 127.345 26.874C126.505 27.15 125.635 27.288 124.735 27.288Z" fill="#007A82"/>
</svg>
